<svg xmlns="http://www.w3.org/2000/svg" x="0px" y="0px" width="100" height="100" viewBox="0 0 32 32">
<path fill="none" stroke="#000" stroke-miterlimit="10" stroke-width="2" d="M15.64,20.81l-1.06,2.42c-.41.93-1.7.93-2.1,0l-1.06-2.42c-.94-2.16-2.64-3.87-4.75-4.81l-2.91-1.29c-.93-.41-.93-1.76,0-2.17l2.82-1.25c2.17-.96,3.89-2.74,4.82-4.97l1.07-2.58c.4-.96,1.72-.96,2.12,0l1.07,2.58c.93,2.23,2.65,4.01,4.82,4.97l2.82,1.25c.93.41.93,1.76,0,2.17l-2.91,1.29c-2.11.94-3.81,2.66-4.75,4.81Z"></path><path fill="none" stroke="#000" stroke-miterlimit="10" stroke-width="2" d="M25.27,28.02l-.28.63c-.2.46-.84.46-1.04,0l-.28-.63c-.49-1.13-1.38-2.02-2.48-2.51l-.85-.38c-.46-.2-.46-.87,0-1.08l.8-.36c1.13-.5,2.03-1.43,2.52-2.6l.28-.68c.2-.48.85-.48,1.05,0l.28.68c.48,1.16,1.38,2.09,2.52,2.6l.8.36c.46.2.46.87,0,1.08l-.85.38c-1.1.49-1.99,1.39-2.48,2.51Z"></path>
</svg>