<?xml version="1.0" encoding="UTF-8" standalone="no"?>
<!-- Created with Inkscape (http://www.inkscape.org/) -->

<svg
   version="1.1"
   id="svg624"
   width="755.90533"
   height="755.90533"
   viewBox="0 0 755.90533 755.90533"
   sodipodi:docname="NUTRIPLAN-LOGO.ai"
   xmlns:inkscape="http://www.inkscape.org/namespaces/inkscape"
   xmlns:sodipodi="http://sodipodi.sourceforge.net/DTD/sodipodi-0.dtd"
   xmlns="http://www.w3.org/2000/svg"
   xmlns:svg="http://www.w3.org/2000/svg">
  <defs
     id="defs628">
    <clipPath
       clipPathUnits="userSpaceOnUse"
       id="clipPath640">
      <path
         d="M 0,566.929 H 566.929 V 0 H 0 Z"
         id="path638" />
    </clipPath>
  </defs>
  <sodipodi:namedview
     id="namedview626"
     pagecolor="#ffffff"
     bordercolor="#000000"
     borderopacity="0.25"
     inkscape:showpageshadow="2"
     inkscape:pageopacity="0.0"
     inkscape:pagecheckerboard="0"
     inkscape:deskcolor="#d1d1d1"
     showgrid="false" />
  <g
     id="g632"
     inkscape:groupmode="layer"
     inkscape:label="Page 1"
     transform="matrix(1.3333333,0,0,-1.3333333,0,755.90533)">
    <g
       id="g847"
       transform="matrix(2,0,0,2,-283.46389,-394.7303)">
      <g
         id="g634">
        <g
           id="g636"
           clip-path="url(#clipPath640)">
          <g
             id="g642"
             transform="translate(375.5022,225.5864)">
            <path
               d="m 0,0 h -184.075 c -11.86,0 -21.474,9.614 -21.474,21.473 v 184.076 c 0,11.859 9.614,21.473 21.474,21.473 H 0 c 11.859,0 21.473,-9.614 21.473,-21.473 V 21.473 C 21.473,9.614 11.859,0 0,0"
               style="fill:#97b13c;fill-opacity:1;fill-rule:nonzero;stroke:none"
               id="path644" />
          </g>
          <g
             id="g646"
             transform="translate(262.4518,341.0135)">
            <path
               d="m 0,0 c 0,0 3.644,27.369 29.798,52.552 0,0 -30.257,0.458 -29.798,-45.102 0,0 -2.402,53.928 -60.109,41.134 0,0 21.593,-42.106 46.748,-34.009 0,0 -2.699,7.99 -19.865,20.621 0,0 25.642,-5.398 33.226,-35.196"
               style="fill:#ffffff;fill-opacity:1;fill-rule:nonzero;stroke:none"
               id="path648" />
          </g>
          <g
             id="g650"
             transform="translate(271.2239,336.1552)">
            <path
               d="M 0,0 C 8.102,58.299 44.849,31.635 82.917,68.881 90.142,31.235 74.725,-5.369 9.987,3.509 c 0,0 9.291,11.966 34.879,20.603 0,0 7.928,3.743 13.867,10.329 C 48.246,25.133 19.158,28.53 0,0"
               style="fill:#ffffff;fill-opacity:1;fill-rule:nonzero;stroke:none"
               id="path652" />
          </g>
          <g
             id="g654"
             transform="translate(231.8373,352.3193)">
            <path
               d="m 0,0 5.883,-3.429 c 0,0 -40.128,-3.18 -40.452,-9.415 0,0 8.817,-15.142 85.868,-15.466 0,0 79.479,1.943 85.957,15.871 0,0 0,4.048 -23.968,8.097 L 115.879,0 c 0,0 31.094,-5.476 27.531,-12.601 0,0 -6.478,-59.758 -84.05,-66.236 0,0 -81.621,-8.584 -99.435,62.673 0,0 -6.977,13.003 40.075,16.164"
               style="fill:#ffffff;fill-opacity:1;fill-rule:nonzero;stroke:none"
               id="path656" />
          </g>
        </g>
      </g>
    </g>
  </g>
</svg>
