<?xml version="1.0" encoding="UTF-8"?>
<svg id="Layer_1" data-name="Layer 1" xmlns="http://www.w3.org/2000/svg" viewBox="0 0 131.57 131.57">
  <defs>
    <style>
      .cls-1 {
        opacity: .5;
      }
    </style>
  </defs>
  <g class="cls-1">
    <path d="m53.09,62.17s2.41-18.14,19.75-34.83c0,0-20.05-.3-19.75,29.89,0,0-1.59-35.74-39.84-27.26,0,0,14.31,27.91,30.98,22.54,0,0-1.79-5.3-13.17-13.67,0,0,16.99,3.58,22.02,23.33Z"/>
    <path d="m58.9,65.39c5.37-38.64,29.72-20.97,54.95-45.65,4.79,24.95-5.43,49.21-48.34,43.33,0,0,6.16-7.93,23.12-13.66,0,0,5.25-2.48,9.19-6.85-6.95,6.17-26.23,3.92-38.93,22.83Z"/>
    <path d="m32.8,54.68l3.9,2.27s-26.6,2.11-26.81,6.24c0,0,5.84,10.04,56.91,10.25,0,0,52.68-1.29,56.97-10.52,0,0,0-2.68-15.89-5.37l1.72-2.88s20.61,3.63,18.25,8.35c0,0-4.29,39.61-55.71,43.9,0,0-54.1,5.69-65.9-41.54,0,0-4.62-8.62,26.56-10.71Z"/>
  </g>
</svg>