<svg xmlns="http://www.w3.org/2000/svg" xmlns:xlink="http://www.w3.org/1999/xlink" viewBox="0,0,256,256" width="100px" height="100px" fill-rule="nonzero"><g fill="#ffffff" fill-rule="nonzero" stroke="none" stroke-width="1" stroke-linecap="butt" stroke-linejoin="miter" stroke-miterlimit="10" stroke-dasharray="" stroke-dashoffset="0" font-family="none" font-weight="none" font-size="none" text-anchor="none" style="mix-blend-mode: normal"><g transform="scale(5.12,5.12)"><path d="M26,-0.03125c-5.85156,0 -8.03125,1.125 -8.03125,4.125c0,0.47266 0.16797,1.17188 0.90625,1.8125c1.40625,1.22656 4.375,1.66016 6.4375,1.375c6.04688,-0.83984 9.20313,0.5625 11.1875,2.15625c-0.95312,0.98438 -1.32422,1.86719 -1.59375,2.5625c-0.22266,0.57813 -0.33594,0.87891 -0.65625,1.15625c-0.98828,0.85547 -2.28906,0.44922 -4.65625,-0.40625c-1.85547,-0.67187 -4.14453,-1.5 -6.84375,-1.5c-6.17187,0 -11.16406,4.30859 -12.28125,10.1875c-0.77734,-0.48828 -1.74609,-0.75 -2.75,-0.75c-2.79297,0 -4.75,1.92188 -4.75,4.6875c0,1.25391 0.78125,2.50391 2.03125,3.28125c1.51953,0.94531 3.50391,1.03906 5.53125,0.28125c1.58984,2.33984 4.82813,2.89453 5.96875,3.09375c0.10547,0.01953 0.18359,0.02344 0.21875,0.03125c0.38281,0.10938 0.84766,0.17969 1.34375,0.25c0.87891,0.125 2.5,0.35938 2.5,0.90625c0,0.55859 -0.41406,1.00781 -1.09375,1.65625c-0.69531,0.65625 -1.46875,1.39063 -1.46875,2.53125c0,2.90625 3.35938,3.21094 5.15625,3.375c0.47656,0.04297 0.94141,0.08984 1.15625,0.15625c3.59766,1.10938 4.52734,2.46875 6.0625,4.71875l0.21875,0.3125c1.33203,1.94531 3.76953,3.03125 5.59375,3.03125c0.37109,0 0.72656,-0.03125 1.03125,-0.125c0.94922,-0.29297 1.5,-1.03516 1.5,-1.96875c0,-3.75781 -2.14844,-6.34766 -4.65625,-8.09375c-1.62891,-1.13672 -3.42187,-1.89844 -4.84375,-2.40625c1.46875,-1.16016 2.15234,-2.92578 2.4375,-4.5c0.04688,-0.27344 0.06641,-0.55078 0.09375,-0.8125c0.01172,-0.10547 0.05078,-0.21094 0.0625,-0.3125c0.03125,-0.37109 0.02734,-0.72266 0.03125,-1.0625c0,-0.10156 0,-0.1875 0,-0.28125c-0.07422,-4.91797 -3.19531,-6.75 -4.4375,-7.46875c-0.48828,-0.28125 -0.65625,-0.88672 -0.375,-1.375c0.28125,-0.48437 0.91406,-0.64453 1.40625,-0.375c5.21484,2.87891 6.92188,8.92188 4.125,15.40625c0.27344,0.13672 0.53516,0.28516 0.8125,0.4375c5.80078,-4.36328 7.36719,-10.11719 7.40625,-14.90625c1.10938,0.46875 2.32031,0.75391 3.65625,0.84375c1.90234,0.13281 4.27344,-0.51953 4.96875,-1.84375c1.14063,-2.17969 0.48828,-6.41016 -0.3125,-7.875c-1.72266,-3.15625 -4.52734,-4.70703 -8.53125,-4.71875c-2.97656,-4.89062 -10.375,-7.59375 -14.5625,-7.59375zM4.28125,7c-0.55078,0 -1,0.44922 -1,1c0,0.55078 0.44922,1 1,1h10.21875c0.55078,0 1,-0.44922 1,-1c0,-0.55078 -0.44922,-1 -1,-1zM2.625,11c-0.55078,0 -1,0.44922 -1,1c0,0.55078 0.44922,1 1,1h7.0625c0.55078,0 1,-0.44922 1,-1c0,-0.55078 -0.44922,-1 -1,-1zM45.5,14c0.82813,0 1.5,0.67188 1.5,1.5c0,0.82813 -0.67187,1.5 -1.5,1.5c-0.82812,0 -1.5,-0.67187 -1.5,-1.5c0,-0.82812 0.67188,-1.5 1.5,-1.5zM1,15c-0.55078,0 -1,0.44922 -1,1c0,0.55078 0.44922,1 1,1h6.40625c0.55078,0 1,-0.44922 1,-1c0,-0.55078 -0.44922,-1 -1,-1z"></path></g></g></svg>