<svg xmlns="http://www.w3.org/2000/svg" xmlns:xlink="http://www.w3.org/1999/xlink" viewBox="0,0,256,256" width="100px" height="100px" fill-rule="nonzero"><g fill="#ffffff" fill-rule="nonzero" stroke="none" stroke-width="1" stroke-linecap="butt" stroke-linejoin="miter" stroke-miterlimit="10" stroke-dasharray="" stroke-dashoffset="0" font-family="none" font-weight="none" font-size="none" text-anchor="none" style="mix-blend-mode: normal"><g transform="scale(5.12,5.12)"><path d="M11.00391,3.98633c-0.43798,-0.00004 -0.82502,0.2849 -0.95508,0.70312l-0.63867,1.96094c-0.75565,2.31403 -0.50008,4.97685 0.75195,6.89648c0.82596,1.26637 1.08574,3.46762 0.52539,5.18359l-0.63867,1.95898c-0.17151,0.52532 0.11531,1.09021 0.64063,1.26172c0.52532,0.17151 1.09021,-0.11531 1.26172,-0.64062l0.63867,-1.96094c0.75565,-2.31403 0.50008,-4.97685 -0.75195,-6.89648c-0.82596,-1.26637 -1.08574,-3.46762 -0.52539,-5.18359l0.63867,-1.95898c0.10473,-0.3057 0.05529,-0.64316 -0.13271,-0.90598c-0.18801,-0.26282 -0.49141,-0.41861 -0.81455,-0.41824zM18.00391,3.98633c-0.43798,-0.00004 -0.82502,0.2849 -0.95508,0.70312l-0.63867,1.96094c-0.75565,2.31403 -0.50008,4.97685 0.75195,6.89648c0.82596,1.26637 1.08574,3.46762 0.52539,5.18359l-0.63867,1.95898c-0.17151,0.52532 0.11531,1.09021 0.64063,1.26172c0.52532,0.17151 1.09021,-0.11531 1.26172,-0.64062l0.63867,-1.96094c0.75565,-2.31403 0.50008,-4.97685 -0.75195,-6.89648c-0.82596,-1.26637 -1.08574,-3.46762 -0.52539,-5.18359l0.63867,-1.95898c0.10473,-0.3057 0.05529,-0.64316 -0.13271,-0.90598c-0.18801,-0.26282 -0.49141,-0.41861 -0.81455,-0.41824zM25.00391,3.98633c-0.43798,-0.00004 -0.82502,0.2849 -0.95508,0.70312l-0.63867,1.96094c-0.75565,2.31403 -0.50008,4.97685 0.75195,6.89648c0.82596,1.26637 1.08574,3.46762 0.52539,5.18359l-0.63867,1.95898c-0.17151,0.52532 0.11531,1.09021 0.64063,1.26172c0.52532,0.17151 1.09021,-0.11531 1.26172,-0.64062l0.63867,-1.96094c0.75565,-2.31403 0.50008,-4.97685 -0.75195,-6.89648c-0.82596,-1.26637 -1.08574,-3.46762 -0.52539,-5.18359l0.63867,-1.95898c0.10473,-0.3057 0.05529,-0.64316 -0.13271,-0.90598c-0.18801,-0.26282 -0.49141,-0.41861 -0.81455,-0.41824zM43.94727,9.99805c-0.20731,-0.00163 -0.4182,0.01734 -0.62695,0.05859c-0.816,0.159 -1.51556,0.6235 -1.97656,1.3125l-10.47266,12.63086h5.85156l9.53125,-8.91016c0.035,-0.033 0.06766,-0.06942 0.09766,-0.10742c0.522,-0.672 0.74023,-1.50566 0.61523,-2.34766c-0.125,-0.842 -0.57844,-1.57736 -1.27344,-2.06836c-0.52125,-0.36825 -1.12416,-0.56348 -1.74609,-0.56836zM4,26c-0.552,0 -1,0.448 -1,1v3c0,9.7 10.616,17 17.5,17h9c6.884,0 17.5,-7.3 17.5,-17v-3c0,-0.552 -0.448,-1 -1,-1zM5,30h36c0.552,0 1,0.448 1,1c0,0.552 -0.448,1 -1,1h-35.79687c-0.119,-0.656 -0.20312,-1.32 -0.20312,-2z"></path></g></g></svg>